<svg width="55" height="75" viewBox="0 0 55 75" fill="none" xmlns="http://www.w3.org/2000/svg">
<g clip-path="url(#clip0_16_90)">
<path d="M13.7517 75.0001C21.3402 75.0001 27.499 69.4001 27.499 62.5001V50.0001H13.7517C6.16322 50.0001 0.00445175 55.6001 0.00445175 62.5001C0.00445175 69.4001 6.16322 75.0001 13.7517 75.0001Z" fill="#0ACF83"/>
<path d="M0.00445175 37.4999C0.00445175 30.5999 6.16322 24.9999 13.7517 24.9999H27.499V49.9999H13.7517C6.16322 49.9999 0.00445175 44.3999 0.00445175 37.4999Z" fill="#A259FF"/>
<path d="M0.00262451 12.5C0.00262451 5.6 6.16139 0 13.7499 0H27.4971V25H13.7499C6.16139 25 0.00262451 19.4 0.00262451 12.5Z" fill="#F24E1E"/>
<path d="M27.5 0H41.2473C48.8357 0 54.9945 5.6 54.9945 12.5C54.9945 19.4 48.8357 25 41.2473 25H27.5V0Z" fill="#FF7262"/>
<path d="M54.9945 37.4999C54.9945 44.3999 48.8357 49.9999 41.2473 49.9999C33.6588 49.9999 27.5 44.3999 27.5 37.4999C27.5 30.5999 33.6588 24.9999 41.2473 24.9999C48.8357 24.9999 54.9945 30.5999 54.9945 37.4999Z" fill="#1ABCFE"/>
</g>
<defs>
<clipPath id="clip0_16_90">
<rect width="55" height="75" fill="white"/>
</clipPath>
</defs>
</svg>
