<svg width="95" height="89" viewBox="0 0 95 89" fill="none" xmlns="http://www.w3.org/2000/svg">
<g clip-path="url(#clip0_18_5)">
<path d="M44.7992 0C20.4559 0 0.715973 20.6487 0.715973 46.1213C0.715973 66.4989 13.3472 83.7872 30.8628 89.8857C33.0659 90.3126 33.8747 88.8852 33.8747 87.667C33.8747 86.5672 33.8339 82.9341 33.8149 79.0802C21.5509 81.8702 18.963 73.6385 18.963 73.6385C16.9577 68.3075 14.0684 66.89 14.0684 66.89C10.0687 64.0274 14.3699 64.0863 14.3699 64.0863C18.7966 64.4116 21.1275 68.8391 21.1275 68.8391C25.0593 75.89 31.4402 73.8515 33.9558 72.6731C34.3514 69.6922 35.4939 67.6575 36.7546 66.5058C26.9631 65.3396 16.6701 61.3849 16.6701 43.7125C16.6701 38.6771 18.3922 34.5627 21.2122 31.3328C20.7545 30.1712 19.2455 25.4802 21.6392 19.1273C21.6392 19.1273 25.341 17.8878 33.7652 23.855C37.2816 22.8331 41.0528 22.3206 44.7992 22.303C48.5455 22.3206 52.3196 22.8331 55.8426 23.855C64.2566 17.8878 67.9533 19.1273 67.9533 19.1273C70.3528 25.4802 68.8432 30.1712 68.3855 31.3328C71.212 34.5627 72.9224 38.6771 72.9224 43.7125C72.9224 61.4269 62.6097 65.3273 52.7934 66.4691C54.3746 67.9004 55.7835 70.7072 55.7835 75.0102C55.7835 81.1813 55.7324 86.1479 55.7324 87.667C55.7324 88.8944 56.5259 90.3325 58.7604 89.8796C76.2665 83.7742 88.8817 66.4921 88.8817 46.1213C88.8817 20.6487 69.1447 0 44.7992 0ZM17.2266 65.7008C17.1295 65.9299 16.7849 65.9987 16.471 65.8413C16.1513 65.6909 15.9717 65.3785 16.0754 65.1486C16.1703 64.9126 16.5155 64.8469 16.8346 65.005C17.155 65.1555 17.3375 65.4709 17.2266 65.7008ZM19.395 67.7251C19.1847 67.929 18.7737 67.8343 18.4949 67.512C18.2065 67.1905 18.1525 66.7605 18.3657 66.5535C18.5825 66.3496 18.9811 66.445 19.2701 66.7666C19.5585 67.0919 19.6147 67.5189 19.395 67.7251ZM20.8826 70.3151C20.6125 70.5114 20.1708 70.3273 19.8978 69.9172C19.6277 69.5071 19.6277 69.0152 19.9036 68.8182C20.1774 68.6211 20.6125 68.7983 20.8891 69.2054C21.1585 69.6224 21.1585 70.1142 20.8826 70.3151ZM23.3984 73.3147C23.1568 73.5935 22.6422 73.5186 22.2655 73.1383C21.88 72.7663 21.7727 72.2386 22.0151 71.9598C22.2596 71.6803 22.7772 71.7589 23.1568 72.1362C23.5393 72.5074 23.6561 73.039 23.3984 73.3147ZM26.6499 74.3273C26.5434 74.6886 26.0477 74.8528 25.5484 74.6993C25.0498 74.5412 24.7235 74.1181 24.8242 73.753C24.9279 73.3895 25.4257 73.2184 25.9287 73.3826C26.4266 73.5399 26.7536 73.96 26.6499 74.3273ZM30.3503 74.7569C30.3627 75.1372 29.9393 75.4526 29.4152 75.4595C28.8881 75.4717 28.4618 75.1639 28.456 74.7897C28.456 74.4055 28.8699 74.0932 29.3969 74.084C29.9211 74.0733 30.3503 74.3788 30.3503 74.7569ZM33.9855 74.6111C34.0483 74.9823 33.684 75.3634 33.1635 75.465C32.6518 75.5627 32.178 75.3336 32.113 74.9655C32.0495 74.5851 32.4204 74.204 32.9314 74.1055C33.4526 74.0108 33.9191 74.2338 33.9855 74.6111Z" fill="#61DAFB"/>
</g>
<defs>
<clipPath id="clip0_18_5">
<rect width="93.4556" height="88.1657" fill="white" transform="translate(0.715973)"/>
</clipPath>
</defs>
</svg>
