<svg width="76" height="75" viewBox="0 0 76 75" fill="none" xmlns="http://www.w3.org/2000/svg">
<path d="M0.5625 0H75.5625V75H0.5625V0Z" fill="#F7DF1E"/>
<path d="M20.2829 62.6753L26.0224 59.2019C27.1297 61.1651 28.1369 62.8262 30.553 62.8262C32.869 62.8262 34.3291 61.9202 34.3291 58.3964V34.4321H41.3772V58.4961C41.3772 65.7961 37.0981 69.1188 30.8552 69.1188C25.2169 69.1188 21.9441 66.1987 20.2828 62.6748" fill="black"/>
<path d="M45.2053 61.9204L50.9441 58.5976C52.4548 61.0648 54.4182 62.877 57.8918 62.877C60.8122 62.877 62.6744 61.4169 62.6744 59.4031C62.6744 56.9866 60.7615 56.1306 57.5393 54.7214L55.7778 53.9657C50.6926 51.8013 47.3194 49.0827 47.3194 43.3433C47.3194 38.0572 51.3469 34.0294 57.6403 34.0294C62.121 34.0294 65.343 35.5903 67.6586 39.6682L62.171 43.1922C60.9626 41.0275 59.6541 40.1718 57.6404 40.1718C55.5762 40.1718 54.2672 41.4807 54.2672 43.1922C54.2672 45.3067 55.5762 46.1627 58.5966 47.4718L60.3585 48.2269C66.3496 50.7946 69.7228 53.4123 69.7228 59.3024C69.7228 65.6462 64.7387 69.1196 58.043 69.1196C51.4982 69.1196 47.2692 65.9985 45.2054 61.9204" fill="black"/>
</svg>
