<svg width="24" height="24" viewBox="0 0 24 24" fill="none" xmlns="http://www.w3.org/2000/svg">
<path d="M0.160706 7.78174V23.9999H5.99922V7.78174H0.160706ZM4.70181 22.7024H1.45816V9.07919H4.70177V22.7024H4.70181Z" fill="#61DAFB"/>
<path d="M3.01825 0C1.39267 0 0.212402 1.12448 0.212402 2.67408C0.212402 4.1977 1.39581 5.34628 2.9657 5.34628C3.78737 5.34628 4.49757 5.07769 5.01957 4.57022C5.52193 4.08112 5.79882 3.40772 5.79817 2.65889C5.76142 1.09345 4.61856 0 3.01825 0ZM4.11489 3.64022C3.83992 3.90755 3.4427 4.04883 2.96565 4.04883C2.1085 4.04883 1.50986 3.4837 1.50986 2.67408C1.50986 1.85048 2.11614 1.29745 3.01825 1.29745C3.91281 1.29745 4.48107 1.83089 4.50071 2.67473C4.50071 3.05484 4.36384 3.39759 4.11489 3.64022Z" fill="#61DAFB"/>
<path d="M17.7772 7.7846C15.94 7.7846 14.7439 8.35399 13.985 8.95521L13.8755 7.78174H8.59418V23.9999H13.784V15.4793C13.784 15.1328 13.9337 14.4112 14.009 14.249C14.5406 13.1023 15.2775 13.1023 16.4324 13.1023C17.7001 13.1023 18.8116 14.2997 18.8116 15.7169V23.9999H23.8392V14.8541C23.8392 9.99682 20.7047 7.7846 17.7772 7.7846ZM22.5418 22.7024H20.1091V15.7169C20.1091 13.5965 18.4051 11.8049 16.4342 11.8049C15.1779 11.8049 13.7311 11.8049 12.8511 13.7023C12.6668 14.0988 12.4865 15.0111 12.4865 15.4793V22.7024H9.89163V9.07919H12.7023L12.898 11.0253H13.9313L14.1213 10.7179C14.4267 10.2263 15.3787 9.08252 17.7772 9.08252C20.0801 9.08252 22.5418 10.8882 22.5418 14.8541V22.7024Z" fill="#61DAFB"/>
</svg>
