<svg width="37" height="40" viewBox="0 0 37 40" fill="none" xmlns="http://www.w3.org/2000/svg">
<path d="M18.0914 40C17.5296 40 17.0052 39.853 16.5182 39.5958L11.5366 36.6927C10.7874 36.2885 11.162 36.1415 11.3867 36.068C12.398 35.7373 12.5853 35.6638 13.6341 35.0758C13.7465 35.0023 13.8963 35.039 14.0087 35.1125L17.8292 37.3542C17.979 37.4277 18.1663 37.4277 18.2787 37.3542L33.2237 28.8654C33.3735 28.7919 33.4485 28.6449 33.4485 28.4612V11.5204C33.4485 11.3367 33.3735 11.1897 33.2237 11.1162L18.2787 2.66422C18.1289 2.59072 17.9416 2.59072 17.8292 2.66422L2.88416 11.1162C2.73434 11.1897 2.65942 11.3734 2.65942 11.5204V28.4612C2.65942 28.6082 2.73434 28.7919 2.88416 28.8654L6.96689 31.1805C9.17681 32.283 10.5627 30.9968 10.5627 29.7106V12.9904C10.5627 12.7699 10.75 12.5494 11.0122 12.5494H12.9224C13.1472 12.5494 13.3719 12.7331 13.3719 12.9904V29.7106C13.3719 32.6137 11.7613 34.3041 8.95207 34.3041C8.09058 34.3041 7.41637 34.3041 5.5061 33.3854L1.57319 31.1805C0.59933 30.6293 3.05176e-05 29.6004 3.05176e-05 28.4979V11.5572C3.05176e-05 10.4548 0.59933 9.42581 1.57319 8.8746L16.5182 0.385852C17.4546 -0.128617 18.7281 -0.128617 19.6646 0.385852L34.6096 8.8746C35.5835 9.42581 36.1828 10.4548 36.1828 11.5572V28.4979C36.1828 29.6004 35.5835 30.6293 34.6096 31.1805L19.6646 39.6693C19.1776 39.8898 18.6158 40 18.0914 40ZM22.6985 28.3509C16.1437 28.3509 14.7952 25.4111 14.7952 22.9123C14.7952 22.6918 14.9825 22.4713 15.2447 22.4713H17.1924C17.4172 22.4713 17.6045 22.6183 17.6045 22.8388C17.9041 24.7864 18.7656 25.7418 22.736 25.7418C25.8823 25.7418 27.2307 25.0436 27.2307 23.39C27.2307 22.4345 26.8562 21.7363 21.9494 21.2586C17.8667 20.8544 15.3196 19.9724 15.3196 16.7754C15.3196 13.7988 17.8667 12.0349 22.1367 12.0349C26.9311 12.0349 29.2908 13.6518 29.5905 17.1796C29.5905 17.2898 29.553 17.4001 29.4781 17.5103C29.4032 17.5838 29.2908 17.6573 29.1784 17.6573H27.2307C27.0434 17.6573 26.8562 17.5103 26.8187 17.3266C26.3692 15.3055 25.2081 14.644 22.1367 14.644C18.6907 14.644 18.2787 15.8199 18.2787 16.7019C18.2787 17.7676 18.7656 18.0983 23.4102 18.6863C28.0173 19.2742 30.1898 20.1194 30.1898 23.2797C30.1523 26.5135 27.4555 28.3509 22.6985 28.3509Z" fill="#539E43"/>
</svg>
