<svg width="81" height="75" viewBox="0 0 81 75" fill="none" xmlns="http://www.w3.org/2000/svg">
<path d="M0.149231 37.3653C0.149231 43.665 6.04869 49.546 15.3497 52.8609C13.4924 62.6108 15.0168 70.4692 20.1087 73.5312C25.3426 76.6785 33.1398 74.4999 40.5404 67.7545C47.7543 74.2276 55.0452 76.7751 60.1323 73.7043C65.3611 70.548 66.9515 62.1566 65.0429 52.1024C74.7303 48.7626 80.1492 43.7479 80.1492 37.3653C80.1492 31.2117 74.2388 25.8879 65.0633 22.5943C67.1181 12.1245 65.377 4.4568 60.0744 1.26826C54.9621 -1.80569 47.5865 0.873572 40.2665 7.5162C32.6513 0.465574 25.3486 -1.68707 20.0511 1.51076C14.9438 4.59345 13.4863 12.5946 15.3497 22.5251C6.36275 25.7923 0.149231 31.2363 0.149231 37.3653Z" fill="white"/>
<path d="M63.119 25.8648C62.382 25.6003 61.6182 25.35 60.8319 25.1133C60.9611 24.5633 61.0798 24.0204 61.1852 23.4867C62.9165 14.7238 61.7845 7.66429 57.9192 5.34001C54.2128 3.11133 48.1513 5.43508 42.0295 10.9904C41.4408 11.5246 40.8505 12.0901 40.2604 12.6829C39.8672 12.2907 39.4747 11.9117 39.0832 11.5492C32.6673 5.60915 26.2364 3.10592 22.3749 5.43693C18.672 7.67207 17.5755 14.3087 19.1339 22.6134C19.2844 23.4155 19.4603 24.2347 19.6592 25.0675C18.7491 25.3369 17.8704 25.6241 17.0297 25.9297C9.50777 28.6642 4.70395 32.9499 4.70395 37.3952C4.70395 41.9864 9.86086 46.5915 17.6955 49.3837C18.3138 49.6041 18.9553 49.8124 19.6165 50.0102C19.4019 50.911 19.2152 51.7937 19.0585 52.6547C17.5726 60.8153 18.733 67.2951 22.426 69.5161C26.2405 71.8098 32.6423 69.4521 38.876 63.7703C39.3687 63.3211 39.8632 62.8448 40.3586 62.3456C41.0006 62.9903 41.6416 63.6004 42.2793 64.1727C48.3174 69.5907 54.281 71.7785 57.9705 69.5513C61.7812 67.251 63.0197 60.2902 61.4119 51.8212C61.2891 51.1744 61.1462 50.5136 60.9857 49.8411C61.4352 49.7025 61.8766 49.5594 62.307 49.4107C70.4518 46.5967 75.7511 42.0477 75.7511 37.3952C75.7511 32.9338 70.7924 28.6192 63.119 25.8648Z" fill="#53C1DE"/>
<path d="M61.3525 46.4067C60.964 46.5409 60.5654 46.6705 60.1592 46.7961C59.26 43.828 58.0465 40.6717 56.5614 37.4108C57.9786 34.2275 59.1452 31.1117 60.0192 28.1627C60.7459 28.382 61.4514 28.6133 62.1311 28.8574C68.7057 31.2174 72.716 34.7067 72.716 37.3954C72.716 40.2593 68.3849 43.977 61.3525 46.4067ZM58.4345 52.436C59.1454 56.1808 59.247 59.5666 58.776 62.2135C58.3529 64.5918 57.5019 66.1775 56.4497 66.8126C54.2107 68.164 49.4226 66.4074 44.2587 61.7738C43.6667 61.2427 43.0705 60.6755 42.4723 60.0753C44.4742 57.7922 46.475 55.1382 48.4277 52.1905C51.8623 51.8727 55.1072 51.3532 58.0499 50.6439C58.1948 51.2535 58.3235 51.8514 58.4345 52.436ZM28.9256 66.5791C26.738 67.3846 24.9957 67.4077 23.9426 66.7745C21.7015 65.4267 20.7699 60.224 22.0407 53.2451C22.1862 52.4458 22.3595 51.6248 22.5592 50.7856C25.4696 51.4567 28.6907 51.9396 32.1336 52.2306C34.0994 55.115 36.158 57.7661 38.2325 60.0875C37.7793 60.5438 37.3278 60.9781 36.8788 61.3875C34.1223 63.8999 31.36 65.6825 28.9256 66.5791ZM18.6771 46.3892C15.2128 45.1545 12.3518 43.5498 10.3908 41.7988C8.62865 40.2252 7.73898 38.663 7.73898 37.3954C7.73898 34.6978 11.596 31.257 18.0288 28.9183C18.8093 28.6345 19.6264 28.3671 20.4743 28.1159C21.3633 31.1314 22.5296 34.2842 23.937 37.4724C22.5114 40.7079 21.3286 43.9109 20.4308 46.9618C19.8263 46.7806 19.2407 46.5899 18.6771 46.3892ZM22.1125 22.0057C20.7773 14.8905 21.6641 9.52297 23.8955 8.17608C26.2724 6.74124 31.5283 8.78702 37.0679 13.916C37.422 14.2438 37.7775 14.5869 38.134 14.9419C36.0697 17.2531 34.03 19.8844 32.0816 22.7517C28.7402 23.0746 25.5417 23.5934 22.6009 24.2881C22.416 23.5126 22.2523 22.7506 22.1125 22.0057ZM52.759 29.8965C52.056 28.6303 51.3343 27.3941 50.5986 26.1916C52.8654 26.4904 55.0373 26.887 57.0769 27.3724C56.4645 29.4188 55.7013 31.5583 54.8029 33.7516C54.1585 32.4758 53.4769 31.1895 52.759 29.8965ZM40.2615 17.2037C41.6614 18.7852 43.0634 20.5508 44.4423 22.4666C43.0528 22.3982 41.646 22.3626 40.2276 22.3626C38.8226 22.3626 37.4262 22.3974 36.0452 22.4646C37.4255 20.5667 38.8396 18.8033 40.2615 17.2037ZM27.6838 29.9184C26.9816 31.1881 26.3126 32.4675 25.6783 33.7493C24.7944 31.5636 24.0383 29.4143 23.4206 27.3389C25.4477 26.8659 27.6094 26.4792 29.8618 26.186C29.1157 27.3996 28.388 28.645 27.6838 29.9181V29.9184ZM29.9267 48.8305C27.5995 48.5597 25.4054 48.1929 23.3788 47.7329C24.0063 45.6206 24.7791 43.4254 25.6817 41.1926C26.3177 42.4734 26.9893 43.7533 27.6959 45.0258H27.696C28.4157 46.3222 29.1613 47.5921 29.9267 48.8305ZM40.3454 57.8102C38.9069 56.1918 37.4721 54.4016 36.0707 52.4759C37.4311 52.5316 38.818 52.56 40.2276 52.56C41.6757 52.56 43.1073 52.526 44.5163 52.4606C43.1328 54.4209 41.7359 56.2139 40.3454 57.8102ZM54.8319 41.0788C55.7815 43.3357 56.582 45.5194 57.2176 47.5958C55.1577 48.0858 52.9336 48.4805 50.5902 48.7738C51.3277 47.555 52.0558 46.2976 52.7712 45.0041C53.4949 43.6954 54.1821 42.3848 54.8319 41.0788ZM50.1422 43.423C49.0316 45.4309 47.8914 47.3477 46.7338 49.1571C44.6256 49.3143 42.4475 49.3952 40.2276 49.3952C38.0166 49.3952 35.866 49.3236 33.795 49.1835C32.5909 47.3504 31.4259 45.4279 30.3224 43.4403H30.3226C29.222 41.458 28.209 39.4591 27.2912 37.4713C28.2088 35.4789 29.2191 33.4777 30.3134 31.4991L30.3131 31.4995C31.4103 29.5155 32.5651 27.6024 33.7581 25.7808C35.8711 25.6143 38.0377 25.5274 40.2275 25.5274H40.2276C42.4271 25.5274 44.5966 25.6149 46.7089 25.7829C47.8838 27.5912 49.0307 29.4981 50.1322 31.4823C51.2462 33.4888 52.2695 35.4767 53.195 37.4264C52.2723 39.4095 51.2512 41.4174 50.1422 43.423ZM56.4032 8.08193C58.7824 9.51255 59.7076 15.2822 58.2128 22.8481C58.1174 23.3309 58.01 23.8226 57.8934 24.3209C54.9459 23.6117 51.7451 23.084 48.3939 22.7562C46.4417 19.8574 44.4187 17.222 42.3881 14.9404C42.934 14.3928 43.4792 13.8706 44.0221 13.3778C49.2673 8.6181 54.1696 6.73886 56.4032 8.08193Z" fill="white"/>
<path d="M40.2286 30.7802C43.7324 30.7802 46.5729 33.7419 46.5729 37.3955C46.5729 41.049 43.7324 44.0109 40.2286 44.0109C36.7248 44.0109 33.8843 41.049 33.8843 37.3955C33.8843 33.7419 36.7248 30.7802 40.2286 30.7802Z" fill="#53C1DE"/>
</svg>
