<svg width="85" height="40" viewBox="0 0 85 40" fill="none" xmlns="http://www.w3.org/2000/svg">
<path d="M32.2202 19.7314C31.0904 19.7314 30.1718 20.087 29.4675 20.7978C28.7632 21.5092 28.4059 22.4417 28.4059 23.5843C28.4059 24.1765 28.4946 24.7164 28.6695 25.2111C28.8443 25.7068 29.1164 26.1661 29.4821 26.581C29.8479 26.9964 30.58 27.5606 31.6711 28.2779C33.01 29.1468 33.8862 29.8521 34.3067 30.4028C34.7275 30.953 34.9363 31.5296 34.9363 32.1307C34.9363 32.9356 34.6871 33.5781 34.1749 34.0611C33.6619 34.5443 32.9757 34.785 32.125 34.785C31.2278 34.785 30.4462 34.4487 29.775 33.7809C29.1038 33.1121 28.7649 32.2275 28.7573 31.1189H28.34V35.143H28.7573C28.8847 34.7619 29.061 34.567 29.2918 34.567C29.4028 34.567 29.6628 34.6484 30.0678 34.8005C31.0532 35.1733 31.8624 35.3532 32.4984 35.3532C33.5945 35.3532 34.5302 34.945 35.3097 34.1156C36.0881 33.2865 36.4811 32.2864 36.4811 31.1189C36.4811 30.2135 36.2216 29.4081 35.7124 28.706C35.2031 28.003 34.2127 27.1853 32.7327 26.2463C31.4591 25.4328 30.6324 24.7702 30.2508 24.2537C29.8687 23.738 29.6725 23.1674 29.6725 22.5413C29.6725 21.8642 29.9065 21.3202 30.368 20.9146C30.8295 20.5086 31.4342 20.3074 32.1909 20.3074C33.0425 20.3074 33.7524 20.5761 34.314 21.1169C34.8751 21.6587 35.1996 22.4094 35.2951 23.3742H35.7124V19.8871H35.3244C35.2769 20.0649 35.233 20.1785 35.1926 20.2296C35.1533 20.2803 35.0778 20.3074 34.9656 20.3074C34.8306 20.3074 34.5899 20.247 34.2482 20.1284C33.516 19.8663 32.841 19.7314 32.2202 19.7314ZM45.8594 19.7314C44.4828 19.7314 43.2329 20.0764 42.1037 20.7667C40.9727 21.4557 40.0775 22.4124 39.4169 23.631C38.7565 24.8495 38.4285 26.1437 38.4285 27.5228C38.4285 29.3757 38.999 31.0264 40.149 32.4732C41.2995 33.9191 42.6783 34.8201 44.2781 35.1664C44.6438 35.369 45.1671 35.892 45.8521 36.7386C46.624 37.6941 47.2771 38.3832 47.8141 38.7935C48.3506 39.2041 48.9299 39.505 49.5419 39.7042C50.1546 39.9026 50.817 40 51.5333 40C52.4007 40 53.1773 39.8397 53.8614 39.5096L53.7076 39.1049C53.3105 39.2571 52.8871 39.3306 52.4411 39.3306C51.8358 39.3306 51.224 39.1184 50.6108 38.6923C49.9985 38.2652 49.2327 37.4503 48.3193 36.2483C47.89 35.6723 47.5936 35.3089 47.4261 35.1664C49.1765 34.803 50.6158 33.901 51.7383 32.4577C52.8604 31.0149 53.4221 29.3683 53.4221 27.5228C53.4221 25.3316 52.6888 23.4901 51.2331 21.9887C49.7762 20.4871 47.9846 19.7314 45.8594 19.7314ZM54.3739 19.7314L54.3958 20.2062C55.3124 20.2062 55.8258 20.4933 55.9406 21.0702C55.9833 21.2766 56.0029 21.6578 56.0064 22.2066L55.9991 32.7067C55.9915 33.4909 55.8864 33.9917 55.6843 34.209C55.482 34.4247 55.1399 34.5599 54.6447 34.6137L54.6228 35.0885H63.7595L63.9938 32.7067H63.5765C63.4573 33.3556 63.1841 33.8204 62.7492 34.0844C62.3132 34.3504 61.5421 34.4814 60.4284 34.4814H59.5645C58.5624 34.4814 57.9826 34.0962 57.8294 33.3216C57.7978 33.1684 57.787 33.0041 57.7855 32.8235L57.8221 22.2066C57.8219 21.4237 57.9149 20.899 58.1076 20.6421C58.3024 20.3862 58.6535 20.243 59.1619 20.2062L59.1399 19.7314H54.3739H54.3739ZM46.0058 20.3074C47.5585 20.3074 48.8262 20.9576 49.8055 22.2689C50.7845 23.5807 51.2697 25.3786 51.2697 27.6552C51.2697 29.8124 50.7774 31.5398 49.7908 32.8391C48.8043 34.1379 47.4911 34.785 45.8594 34.785C44.2918 34.785 43.0206 34.1177 42.0451 32.7768C41.0705 31.4358 40.5882 29.6948 40.5882 27.554C40.5882 25.354 41.0764 23.593 42.0598 22.2767C43.0426 20.9618 44.3586 20.3074 46.0058 20.3074ZM67.0174 22.5647C66.7945 22.5647 66.6247 22.6447 66.4976 22.806C66.3676 22.9666 66.3277 23.1612 66.3731 23.3975C66.4171 23.6268 66.5386 23.8277 66.7319 23.9969C66.924 24.1659 67.1313 24.2537 67.3542 24.2537C67.5697 24.2537 67.734 24.1659 67.852 23.9969C67.97 23.8277 68.006 23.6268 67.9618 23.3975C67.9164 23.1612 67.799 22.9666 67.6177 22.806C67.4344 22.6447 67.2329 22.5647 67.0174 22.5647ZM73.0427 24.1759C72.664 25.7246 71.8432 26.5627 70.5828 26.6978L70.5974 27.1414H72.0689L72.0397 32.3876C72.042 33.2845 72.0678 33.8817 72.1275 34.1856C72.2725 34.9133 72.7194 35.2831 73.4673 35.2831C74.5493 35.2831 75.6844 34.5823 76.8716 33.1815L76.5129 32.8546C75.6557 33.7771 74.8978 34.2401 74.236 34.2401C73.8292 34.2401 73.5771 33.9914 73.4819 33.5007C73.4559 33.3815 73.4453 33.2422 73.4453 33.0803L73.4599 27.1414H75.7075L75.6856 26.4331H73.4673V24.1759H73.0427H73.0427ZM81.7328 26.1529C80.4756 26.1529 79.453 26.8018 78.6579 28.091C77.867 29.3825 77.6221 30.8133 77.9331 32.3876C78.1162 33.3097 78.4808 34.0244 79.0386 34.5281C79.5956 35.0316 80.3023 35.2831 81.1471 35.2831C81.9337 35.2831 83.0289 35.0714 83.4899 34.6449C83.952 34.2186 84.3778 33.528 84.771 32.5822L84.4562 32.2319C83.829 33.4589 82.563 34.0766 81.6083 34.0766C80.2958 34.0766 79.492 33.3111 79.1924 31.7883C79.1534 31.5939 79.1244 31.3851 79.1045 31.1656C80.666 30.9027 81.8494 30.4373 82.6479 29.7645C83.4459 29.0914 84.2472 28.3778 84.0975 27.624C84.0085 27.1761 83.7897 26.8239 83.4533 26.5577C83.1124 26.2916 82.2274 26.1529 81.7328 26.1529ZM67.9911 26.2074L65.2823 26.869V27.3827L66.2194 27.2582C66.6733 27.2582 66.9404 27.4767 67.0247 27.912C67.0531 28.0577 67.071 28.2623 67.076 28.5191L67.0467 33.2282C67.0391 33.8799 66.9711 34.2587 66.8344 34.3724C66.6964 34.4864 66.3327 34.5437 65.7435 34.5437L65.7289 34.9873H70.0264L70.0191 34.5437C69.4219 34.5437 69.0348 34.4936 68.8623 34.3958C68.6928 34.2986 68.5759 34.1218 68.5255 33.8509C68.4866 33.6557 68.4696 33.3194 68.467 32.8546L68.4816 26.2074H67.9911H67.9911ZM81.0446 27.0792C81.3061 27.0792 81.5588 27.1866 81.8133 27.3983C82.0643 27.6093 82.2172 27.8439 82.2672 28.0988C82.5124 29.3508 81.4684 30.2163 79.1192 30.6986C79.0521 29.7857 79.2009 28.957 79.5804 28.2078C79.957 27.4594 80.4475 27.0792 81.0446 27.0792Z" fill="#61DAFB"/>
<path d="M26.1525 1.75253H2.84073C1.27835 1.75253 3.05176e-05 3.11186 3.05176e-05 4.77289V32.1056C3.05176e-05 33.7665 1.27835 35.1256 2.84073 35.1256H18.1945C18.0202 27.0035 20.629 11.2409 26.1525 1.75253Z" fill="#0F80CC"/>
<path d="M25.3057 2.63367H2.84077C1.73139 2.63367 0.828613 3.59323 0.828613 4.77292V30.1114C5.91643 28.0354 13.5526 26.244 18.8326 26.3254C19.8936 20.4271 23.0119 8.86758 25.3057 2.63367Z" fill="url(#paint0_linear_8_86)"/>
<path d="M31.59 0.85806C29.9935 -0.655698 28.0604 -0.0476413 26.1525 1.75255C25.8693 2.02 25.5867 2.31671 25.3056 2.63366C22.0419 6.31469 19.0124 13.1331 18.0712 18.3404C18.4378 19.1309 18.7242 20.1396 18.9128 20.9102C18.9612 21.1079 19.0048 21.2935 19.0396 21.4513C19.1225 21.8249 19.167 22.0672 19.167 22.0672C19.167 22.0672 19.1377 21.9495 19.0177 21.5793C18.9948 21.5083 18.9694 21.4308 18.9392 21.3396C18.9263 21.3019 18.9084 21.2561 18.8888 21.2072C18.6759 20.6811 18.087 19.5705 17.8278 19.087C17.6062 19.7822 17.4102 20.4326 17.2463 21.0211C17.9945 22.4765 18.4504 24.9708 18.4504 24.9708C18.4504 24.9708 18.4109 24.8092 18.2229 24.245C18.056 23.746 17.2246 22.1973 17.0276 21.8353C16.6908 23.1575 16.5569 24.0502 16.6776 24.2675C16.912 24.6887 17.1352 25.4153 17.3312 26.219C17.774 28.0294 18.0817 30.2334 18.0817 30.2334C18.0817 30.2334 18.0917 30.3795 18.1084 30.6042C18.0469 32.1246 18.0838 33.7009 18.1945 35.1257C18.3412 37.0117 18.6174 38.6319 18.9694 39.4991L19.2083 39.3605C18.6914 37.6522 18.4815 35.4133 18.5734 32.8313C18.7125 28.8847 19.5668 24.1252 21.1452 19.1645C23.8118 11.676 27.5116 5.66771 30.8978 2.79836C27.8115 5.76174 23.6344 15.354 22.3839 18.9061C20.9838 22.8838 19.9917 26.6166 19.3937 30.1929C20.4254 26.8401 23.7612 25.3989 23.7612 25.3989C23.7612 25.3989 25.3973 23.2537 27.3093 20.1888C26.1639 20.4665 24.2833 20.942 23.6534 21.2234C22.7242 21.6378 22.4738 21.7792 22.4738 21.7792C22.4738 21.7792 25.4837 19.8305 28.066 18.9481C31.6173 13.0014 35.4863 4.55341 31.59 0.85806Z" fill="#003B57"/>
<defs>
<linearGradient id="paint0_linear_8_86" x1="14.9425" y1="3.19598" x2="14.9425" y2="28.5833" gradientUnits="userSpaceOnUse">
<stop stop-color="#97D9F6"/>
<stop offset="0.920245" stop-color="#0F80CC"/>
<stop offset="1" stop-color="#0F80CC"/>
</linearGradient>
</defs>
</svg>
