<svg width="90" height="75" viewBox="0 0 90 75" fill="none" xmlns="http://www.w3.org/2000/svg">
<path d="M45 0C33 0 25.5 8.33333 22.5 25C27 16.6667 32.25 13.5417 38.25 15.625C41.6733 16.8137 44.1202 20.263 46.8285 24.0812C51.2405 30.3012 56.3468 37.5 67.5 37.5C79.5 37.5 87 29.1667 90 12.5C85.5 20.8333 80.25 23.9583 74.25 21.875C70.8267 20.6863 68.3798 17.237 65.6715 13.4187C61.2595 7.19884 56.1532 0 45 0ZM22.5 37.5C10.5 37.5 3 45.8333 0 62.5C4.5 54.1667 9.75 51.0417 15.75 53.125C19.1733 54.3137 21.6202 57.763 24.3285 61.5812C28.7405 67.8012 33.8468 75 45 75C57 75 64.5 66.6667 67.5 50C63 58.3333 57.75 61.4583 51.75 59.375C48.3267 58.1863 45.8798 54.737 43.1715 50.9187C38.7595 44.6988 33.6532 37.5 22.5 37.5Z" fill="url(#paint0_linear_19_3)"/>
<defs>
<linearGradient id="paint0_linear_19_3" x1="-2.5" y1="24" x2="85.8451" y2="60.6752" gradientUnits="userSpaceOnUse">
<stop stop-color="#2298BD"/>
<stop offset="1" stop-color="#0ED7B5"/>
</linearGradient>
</defs>
</svg>
