<svg width="75" height="75" viewBox="0 0 75 75" fill="none" xmlns="http://www.w3.org/2000/svg">
<path d="M0 37.5V75H37.5H75V37.5V0H37.5H0V37.5Z" fill="#007ACC"/>
<path d="M16.5849 37.7488L16.5611 40.8203H21.4421H26.323L26.323 54.6893V68.5583H29.7754H33.2278V54.6893V40.8203H38.1087H42.9897L42.9897 37.8083C42.9897 36.1417 42.954 34.7488 42.9064 34.7131C42.8706 34.6655 36.9302 34.6417 29.7278 34.6536L16.6206 34.6893L16.5849 37.7488Z" fill="white"/>
<path d="M60.5179 34.6021C62.4227 35.0782 63.875 35.9235 65.2084 37.3044C65.8989 38.0425 66.9227 39.3878 67.006 39.7092C67.0298 39.8044 63.7679 41.9949 61.7917 43.2211C61.7203 43.2687 61.4346 42.9592 61.1131 42.483C60.1489 41.0782 59.137 40.4711 57.5893 40.364C55.3155 40.2092 53.8512 41.3997 53.8631 43.3878C53.8631 43.9711 53.9465 44.3163 54.1846 44.7925C54.6846 45.8282 55.6131 46.4473 58.5298 47.7092C63.8989 50.0187 66.1965 51.5425 67.625 53.7092C69.2203 56.1259 69.5774 59.983 68.4941 62.8521C67.3036 65.9711 64.3512 68.0901 60.1965 68.7925C58.9108 69.0187 55.8631 68.983 54.4822 68.733C51.4703 68.1973 48.6131 66.7092 46.8512 64.7568C46.1608 63.9949 44.8155 62.0068 44.8989 61.864C44.9346 61.8163 45.2441 61.6259 45.5893 61.4235C45.9227 61.233 47.1846 60.5068 48.375 59.8163L50.5298 58.5663L50.9822 59.233C51.6131 60.1973 52.9941 61.5187 53.8274 61.9592C56.2203 63.2211 59.506 63.0425 61.125 61.5901C61.8155 60.9592 62.1012 60.3044 62.1012 59.3401C62.1012 58.4711 61.9941 58.0901 61.5417 57.4354C60.9584 56.602 59.7679 55.8997 56.387 54.4354C52.5179 52.7687 50.8512 51.733 49.3274 50.0901C48.4465 49.1378 47.6131 47.614 47.2679 46.3401C46.9822 45.2806 46.9108 42.6259 47.1369 41.5544C47.9346 37.8163 50.756 35.2092 54.8274 34.4354C56.1489 34.1854 59.2203 34.2806 60.5179 34.6021Z" fill="white"/>
</svg>
